%TF.GenerationSoftware,KiCad,Pcbnew,(6.0.8)*%
%TF.CreationDate,2022-10-30T19:36:15+01:00*%
%TF.ProjectId,fan.picow,66616e2e-7069-4636-9f77-2e6b69636164,rev?*%
%TF.SameCoordinates,Original*%
%TF.FileFunction,Paste,Top*%
%TF.FilePolarity,Positive*%
%FSLAX46Y46*%
G04 Gerber Fmt 4.6, Leading zero omitted, Abs format (unit mm)*
G04 Created by KiCad (PCBNEW (6.0.8)) date 2022-10-30 19:36:15*
%MOMM*%
%LPD*%
G01*
G04 APERTURE LIST*
G04 Aperture macros list*
%AMRoundRect*
0 Rectangle with rounded corners*
0 $1 Rounding radius*
0 $2 $3 $4 $5 $6 $7 $8 $9 X,Y pos of 4 corners*
0 Add a 4 corners polygon primitive as box body*
4,1,4,$2,$3,$4,$5,$6,$7,$8,$9,$2,$3,0*
0 Add four circle primitives for the rounded corners*
1,1,$1+$1,$2,$3*
1,1,$1+$1,$4,$5*
1,1,$1+$1,$6,$7*
1,1,$1+$1,$8,$9*
0 Add four rect primitives between the rounded corners*
20,1,$1+$1,$2,$3,$4,$5,0*
20,1,$1+$1,$4,$5,$6,$7,0*
20,1,$1+$1,$6,$7,$8,$9,0*
20,1,$1+$1,$8,$9,$2,$3,0*%
G04 Aperture macros list end*
%ADD10RoundRect,0.250000X-0.325000X-0.450000X0.325000X-0.450000X0.325000X0.450000X-0.325000X0.450000X0*%
%ADD11R,1.800000X3.500000*%
%ADD12RoundRect,0.237500X-0.250000X-0.237500X0.250000X-0.237500X0.250000X0.237500X-0.250000X0.237500X0*%
%ADD13RoundRect,0.237500X0.300000X0.237500X-0.300000X0.237500X-0.300000X-0.237500X0.300000X-0.237500X0*%
%ADD14RoundRect,0.237500X0.250000X0.237500X-0.250000X0.237500X-0.250000X-0.237500X0.250000X-0.237500X0*%
%ADD15RoundRect,0.237500X-0.300000X-0.237500X0.300000X-0.237500X0.300000X0.237500X-0.300000X0.237500X0*%
G04 APERTURE END LIST*
D10*
%TO.C,D7*%
X164075000Y-71120000D03*
X166125000Y-71120000D03*
%TD*%
D11*
%TO.C,D3*%
X130175000Y-78145000D03*
X130175000Y-83145000D03*
%TD*%
D12*
%TO.C,R3*%
X124817500Y-92075000D03*
X126642500Y-92075000D03*
%TD*%
D10*
%TO.C,D8*%
X164075000Y-63500000D03*
X166125000Y-63500000D03*
%TD*%
D11*
%TO.C,D6*%
X130175000Y-53975000D03*
X130175000Y-58975000D03*
%TD*%
D12*
%TO.C,R12*%
X124817500Y-49530000D03*
X126642500Y-49530000D03*
%TD*%
D10*
%TO.C,D4*%
X164075000Y-85090000D03*
X166125000Y-85090000D03*
%TD*%
D12*
%TO.C,R19*%
X124817500Y-85725000D03*
X126642500Y-85725000D03*
%TD*%
D13*
%TO.C,C3*%
X131037500Y-86360000D03*
X129312500Y-86360000D03*
%TD*%
D14*
%TO.C,R20*%
X126642500Y-98425000D03*
X124817500Y-98425000D03*
%TD*%
%TO.C,R11*%
X126642500Y-69215000D03*
X124817500Y-69215000D03*
%TD*%
D12*
%TO.C,R13*%
X124817500Y-52705000D03*
X126642500Y-52705000D03*
%TD*%
D13*
%TO.C,C2*%
X165962500Y-78105000D03*
X164237500Y-78105000D03*
%TD*%
D12*
%TO.C,R2*%
X124817500Y-88900000D03*
X126642500Y-88900000D03*
%TD*%
D11*
%TO.C,D2*%
X130175000Y-90170000D03*
X130175000Y-95170000D03*
%TD*%
D14*
%TO.C,R4*%
X126642500Y-95250000D03*
X124817500Y-95250000D03*
%TD*%
D12*
%TO.C,R8*%
X164187500Y-81280000D03*
X166012500Y-81280000D03*
%TD*%
D11*
%TO.C,D9*%
X165100000Y-45760000D03*
X165100000Y-50760000D03*
%TD*%
D12*
%TO.C,R10*%
X124817500Y-66040000D03*
X126642500Y-66040000D03*
%TD*%
D15*
%TO.C,C6*%
X164237500Y-59690000D03*
X165962500Y-59690000D03*
%TD*%
D13*
%TO.C,C5*%
X130810000Y-62230000D03*
X129085000Y-62230000D03*
%TD*%
D12*
%TO.C,R1*%
X164187500Y-92710000D03*
X166012500Y-92710000D03*
%TD*%
D14*
%TO.C,R14*%
X126642500Y-55880000D03*
X124817500Y-55880000D03*
%TD*%
D12*
%TO.C,R15*%
X164187500Y-74930000D03*
X166012500Y-74930000D03*
%TD*%
D11*
%TO.C,D5*%
X130175000Y-66040000D03*
X130175000Y-71040000D03*
%TD*%
D12*
%TO.C,R17*%
X124817500Y-59055000D03*
X126642500Y-59055000D03*
%TD*%
%TO.C,R9*%
X124817500Y-62865000D03*
X126642500Y-62865000D03*
%TD*%
D10*
%TO.C,D1*%
X164075000Y-88900000D03*
X166125000Y-88900000D03*
%TD*%
D12*
%TO.C,R18*%
X124817500Y-72390000D03*
X126642500Y-72390000D03*
%TD*%
%TO.C,R6*%
X124817500Y-79375000D03*
X126642500Y-79375000D03*
%TD*%
%TO.C,R5*%
X124817500Y-76200000D03*
X126642500Y-76200000D03*
%TD*%
D14*
%TO.C,R7*%
X126642500Y-82550000D03*
X124817500Y-82550000D03*
%TD*%
D13*
%TO.C,C1*%
X131037500Y-98425000D03*
X129312500Y-98425000D03*
%TD*%
%TO.C,C4*%
X131037500Y-74295000D03*
X129312500Y-74295000D03*
%TD*%
D12*
%TO.C,R16*%
X164187500Y-67310000D03*
X166012500Y-67310000D03*
%TD*%
M02*
