%TF.GenerationSoftware,KiCad,Pcbnew,(6.0.8)*%
%TF.CreationDate,2022-10-30T19:36:16+01:00*%
%TF.ProjectId,fan.picow,66616e2e-7069-4636-9f77-2e6b69636164,rev?*%
%TF.SameCoordinates,Original*%
%TF.FileFunction,Soldermask,Bot*%
%TF.FilePolarity,Negative*%
%FSLAX46Y46*%
G04 Gerber Fmt 4.6, Leading zero omitted, Abs format (unit mm)*
G04 Created by KiCad (PCBNEW (6.0.8)) date 2022-10-30 19:36:16*
%MOMM*%
%LPD*%
G01*
G04 APERTURE LIST*
%ADD10C,1.100000*%
%ADD11R,2.030000X1.730000*%
%ADD12O,2.030000X1.730000*%
%ADD13C,3.200000*%
%ADD14R,1.700000X1.700000*%
%ADD15O,1.700000X1.700000*%
%ADD16C,6.400000*%
%ADD17C,0.800000*%
%ADD18O,1.500000X1.500000*%
%ADD19O,1.800000X1.800000*%
G04 APERTURE END LIST*
D10*
%TO.C,J5*%
X122475000Y-69225000D03*
D11*
X120315000Y-64145000D03*
D12*
X120315000Y-66685000D03*
X120315000Y-69225000D03*
X120315000Y-71765000D03*
%TD*%
D13*
%TO.C,H3*%
X171450000Y-102870000D03*
%TD*%
D14*
%TO.C,JP1*%
X158115000Y-104140000D03*
D15*
X155575000Y-104140000D03*
X153035000Y-104140000D03*
%TD*%
D10*
%TO.C,J4*%
X122475000Y-56525000D03*
D11*
X120315000Y-51445000D03*
D12*
X120315000Y-53985000D03*
X120315000Y-56525000D03*
X120315000Y-59065000D03*
%TD*%
D13*
%TO.C,H2*%
X119380000Y-102870000D03*
%TD*%
D14*
%TO.C,J8*%
X132095000Y-104140000D03*
D15*
X134635000Y-104140000D03*
X137175000Y-104140000D03*
%TD*%
D14*
%TO.C,J11*%
X172720000Y-90170000D03*
D15*
X172720000Y-92710000D03*
%TD*%
D14*
%TO.C,J9*%
X148575000Y-104140000D03*
D15*
X146035000Y-104140000D03*
X143495000Y-104140000D03*
%TD*%
D14*
%TO.C,J7*%
X172720000Y-74940000D03*
D15*
X172720000Y-77480000D03*
X172720000Y-80020000D03*
X172720000Y-82560000D03*
%TD*%
D14*
%TO.C,J6*%
X125745000Y-43815000D03*
D15*
X128285000Y-43815000D03*
X130825000Y-43815000D03*
%TD*%
D10*
%TO.C,J3*%
X122475000Y-81915000D03*
D11*
X120315000Y-76835000D03*
D12*
X120315000Y-79375000D03*
X120315000Y-81915000D03*
X120315000Y-84455000D03*
%TD*%
D16*
%TO.C,H4*%
X119380000Y-45720000D03*
D17*
X121780000Y-45720000D03*
X121077056Y-47417056D03*
X117682944Y-44022944D03*
X116980000Y-45720000D03*
X121077056Y-44022944D03*
X119380000Y-48120000D03*
X119380000Y-43320000D03*
X117682944Y-47417056D03*
%TD*%
D13*
%TO.C,H1*%
X171450000Y-45720000D03*
%TD*%
D14*
%TO.C,J10*%
X172720000Y-53340000D03*
D15*
X172720000Y-55880000D03*
%TD*%
D18*
%TO.C,U1*%
X149846600Y-46898800D03*
D19*
X144696600Y-43868800D03*
X150146600Y-43868800D03*
D18*
X144996600Y-46898800D03*
D15*
X138531600Y-43738800D03*
X138531600Y-46278800D03*
D14*
X138531600Y-48818800D03*
D15*
X138531600Y-51358800D03*
X138531600Y-53898800D03*
X138531600Y-56438800D03*
X138531600Y-58978800D03*
D14*
X138531600Y-61518800D03*
D15*
X138531600Y-64058800D03*
X138531600Y-66598800D03*
X138531600Y-69138800D03*
X138531600Y-71678800D03*
D14*
X138531600Y-74218800D03*
D15*
X138531600Y-76758800D03*
X138531600Y-79298800D03*
X138531600Y-81838800D03*
X138531600Y-84378800D03*
D14*
X138531600Y-86918800D03*
D15*
X138531600Y-89458800D03*
X138531600Y-91998800D03*
X156311600Y-91998800D03*
X156311600Y-89458800D03*
D14*
X156311600Y-86918800D03*
D15*
X156311600Y-84378800D03*
X156311600Y-81838800D03*
X156311600Y-79298800D03*
X156311600Y-76758800D03*
D14*
X156311600Y-74218800D03*
D15*
X156311600Y-71678800D03*
X156311600Y-69138800D03*
X156311600Y-66598800D03*
X156311600Y-64058800D03*
D14*
X156311600Y-61518800D03*
D15*
X156311600Y-58978800D03*
X156311600Y-56438800D03*
X156311600Y-53898800D03*
X156311600Y-51358800D03*
D14*
X156311600Y-48818800D03*
D15*
X156311600Y-46278800D03*
X156311600Y-43738800D03*
X148005700Y-73468800D03*
D14*
X150545700Y-73468800D03*
D15*
X153085700Y-73468800D03*
%TD*%
D14*
%TO.C,J12*%
X172720000Y-63500000D03*
D15*
X172720000Y-66040000D03*
X172720000Y-68580000D03*
%TD*%
D10*
%TO.C,J2*%
X122475000Y-94625000D03*
D11*
X120315000Y-89545000D03*
D12*
X120315000Y-92085000D03*
X120315000Y-94625000D03*
X120315000Y-97165000D03*
%TD*%
M02*
