%TF.GenerationSoftware,KiCad,Pcbnew,(6.0.8)*%
%TF.CreationDate,2022-10-30T19:36:16+01:00*%
%TF.ProjectId,fan.picow,66616e2e-7069-4636-9f77-2e6b69636164,rev?*%
%TF.SameCoordinates,Original*%
%TF.FileFunction,Soldermask,Top*%
%TF.FilePolarity,Negative*%
%FSLAX46Y46*%
G04 Gerber Fmt 4.6, Leading zero omitted, Abs format (unit mm)*
G04 Created by KiCad (PCBNEW (6.0.8)) date 2022-10-30 19:36:16*
%MOMM*%
%LPD*%
G01*
G04 APERTURE LIST*
G04 Aperture macros list*
%AMRoundRect*
0 Rectangle with rounded corners*
0 $1 Rounding radius*
0 $2 $3 $4 $5 $6 $7 $8 $9 X,Y pos of 4 corners*
0 Add a 4 corners polygon primitive as box body*
4,1,4,$2,$3,$4,$5,$6,$7,$8,$9,$2,$3,0*
0 Add four circle primitives for the rounded corners*
1,1,$1+$1,$2,$3*
1,1,$1+$1,$4,$5*
1,1,$1+$1,$6,$7*
1,1,$1+$1,$8,$9*
0 Add four rect primitives between the rounded corners*
20,1,$1+$1,$2,$3,$4,$5,0*
20,1,$1+$1,$4,$5,$6,$7,0*
20,1,$1+$1,$6,$7,$8,$9,0*
20,1,$1+$1,$8,$9,$2,$3,0*%
G04 Aperture macros list end*
%ADD10RoundRect,0.250000X-0.325000X-0.450000X0.325000X-0.450000X0.325000X0.450000X-0.325000X0.450000X0*%
%ADD11R,1.800000X3.500000*%
%ADD12RoundRect,0.237500X-0.250000X-0.237500X0.250000X-0.237500X0.250000X0.237500X-0.250000X0.237500X0*%
%ADD13C,1.100000*%
%ADD14R,2.030000X1.730000*%
%ADD15O,2.030000X1.730000*%
%ADD16C,3.200000*%
%ADD17R,1.700000X1.700000*%
%ADD18O,1.700000X1.700000*%
%ADD19C,1.500000*%
%ADD20RoundRect,0.237500X0.300000X0.237500X-0.300000X0.237500X-0.300000X-0.237500X0.300000X-0.237500X0*%
%ADD21RoundRect,0.237500X0.250000X0.237500X-0.250000X0.237500X-0.250000X-0.237500X0.250000X-0.237500X0*%
%ADD22RoundRect,0.237500X-0.300000X-0.237500X0.300000X-0.237500X0.300000X0.237500X-0.300000X0.237500X0*%
%ADD23C,6.400000*%
%ADD24C,0.800000*%
%ADD25O,1.500000X1.500000*%
%ADD26O,1.800000X1.800000*%
%ADD27R,3.500000X1.700000*%
G04 APERTURE END LIST*
D10*
%TO.C,D7*%
X164075000Y-71120000D03*
X166125000Y-71120000D03*
%TD*%
D11*
%TO.C,D3*%
X130175000Y-78145000D03*
X130175000Y-83145000D03*
%TD*%
D12*
%TO.C,R3*%
X124817500Y-92075000D03*
X126642500Y-92075000D03*
%TD*%
D13*
%TO.C,J5*%
X122475000Y-69225000D03*
D14*
X120315000Y-64145000D03*
D15*
X120315000Y-66685000D03*
X120315000Y-69225000D03*
X120315000Y-71765000D03*
%TD*%
D10*
%TO.C,D8*%
X164075000Y-63500000D03*
X166125000Y-63500000D03*
%TD*%
D16*
%TO.C,H3*%
X171450000Y-102870000D03*
%TD*%
D11*
%TO.C,D6*%
X130175000Y-53975000D03*
X130175000Y-58975000D03*
%TD*%
D17*
%TO.C,JP1*%
X158115000Y-104140000D03*
D18*
X155575000Y-104140000D03*
X153035000Y-104140000D03*
%TD*%
D12*
%TO.C,R12*%
X124817500Y-49530000D03*
X126642500Y-49530000D03*
%TD*%
D10*
%TO.C,D4*%
X164075000Y-85090000D03*
X166125000Y-85090000D03*
%TD*%
D19*
%TO.C,TP2*%
X165100000Y-55880000D03*
%TD*%
D12*
%TO.C,R19*%
X124817500Y-85725000D03*
X126642500Y-85725000D03*
%TD*%
D20*
%TO.C,C3*%
X131037500Y-86360000D03*
X129312500Y-86360000D03*
%TD*%
D21*
%TO.C,R20*%
X126642500Y-98425000D03*
X124817500Y-98425000D03*
%TD*%
D13*
%TO.C,J4*%
X122475000Y-56525000D03*
D14*
X120315000Y-51445000D03*
D15*
X120315000Y-53985000D03*
X120315000Y-56525000D03*
X120315000Y-59065000D03*
%TD*%
D21*
%TO.C,R11*%
X126642500Y-69215000D03*
X124817500Y-69215000D03*
%TD*%
D12*
%TO.C,R13*%
X124817500Y-52705000D03*
X126642500Y-52705000D03*
%TD*%
D16*
%TO.C,H2*%
X119380000Y-102870000D03*
%TD*%
D20*
%TO.C,C2*%
X165962500Y-78105000D03*
X164237500Y-78105000D03*
%TD*%
D12*
%TO.C,R2*%
X124817500Y-88900000D03*
X126642500Y-88900000D03*
%TD*%
D11*
%TO.C,D2*%
X130175000Y-90170000D03*
X130175000Y-95170000D03*
%TD*%
D17*
%TO.C,J8*%
X132095000Y-104140000D03*
D18*
X134635000Y-104140000D03*
X137175000Y-104140000D03*
%TD*%
D21*
%TO.C,R4*%
X126642500Y-95250000D03*
X124817500Y-95250000D03*
%TD*%
D17*
%TO.C,J11*%
X172720000Y-90170000D03*
D18*
X172720000Y-92710000D03*
%TD*%
D12*
%TO.C,R8*%
X164187500Y-81280000D03*
X166012500Y-81280000D03*
%TD*%
D11*
%TO.C,D9*%
X165100000Y-45760000D03*
X165100000Y-50760000D03*
%TD*%
D12*
%TO.C,R10*%
X124817500Y-66040000D03*
X126642500Y-66040000D03*
%TD*%
D17*
%TO.C,J9*%
X148575000Y-104140000D03*
D18*
X146035000Y-104140000D03*
X143495000Y-104140000D03*
%TD*%
D17*
%TO.C,J7*%
X172720000Y-74940000D03*
D18*
X172720000Y-77480000D03*
X172720000Y-80020000D03*
X172720000Y-82560000D03*
%TD*%
D17*
%TO.C,J6*%
X125745000Y-43815000D03*
D18*
X128285000Y-43815000D03*
X130825000Y-43815000D03*
%TD*%
D22*
%TO.C,C6*%
X164237500Y-59690000D03*
X165962500Y-59690000D03*
%TD*%
D13*
%TO.C,J3*%
X122475000Y-81915000D03*
D14*
X120315000Y-76835000D03*
D15*
X120315000Y-79375000D03*
X120315000Y-81915000D03*
X120315000Y-84455000D03*
%TD*%
D20*
%TO.C,C5*%
X130810000Y-62230000D03*
X129085000Y-62230000D03*
%TD*%
D23*
%TO.C,H4*%
X119380000Y-45720000D03*
D24*
X121780000Y-45720000D03*
X121077056Y-47417056D03*
X117682944Y-44022944D03*
X116980000Y-45720000D03*
X121077056Y-44022944D03*
X119380000Y-48120000D03*
X119380000Y-43320000D03*
X117682944Y-47417056D03*
%TD*%
D16*
%TO.C,H1*%
X171450000Y-45720000D03*
%TD*%
D12*
%TO.C,R1*%
X164187500Y-92710000D03*
X166012500Y-92710000D03*
%TD*%
D21*
%TO.C,R14*%
X126642500Y-55880000D03*
X124817500Y-55880000D03*
%TD*%
D12*
%TO.C,R15*%
X164187500Y-74930000D03*
X166012500Y-74930000D03*
%TD*%
D11*
%TO.C,D5*%
X130175000Y-66040000D03*
X130175000Y-71040000D03*
%TD*%
D12*
%TO.C,R17*%
X124817500Y-59055000D03*
X126642500Y-59055000D03*
%TD*%
%TO.C,R9*%
X124817500Y-62865000D03*
X126642500Y-62865000D03*
%TD*%
D10*
%TO.C,D1*%
X164075000Y-88900000D03*
X166125000Y-88900000D03*
%TD*%
D12*
%TO.C,R18*%
X124817500Y-72390000D03*
X126642500Y-72390000D03*
%TD*%
%TO.C,R6*%
X124817500Y-79375000D03*
X126642500Y-79375000D03*
%TD*%
D17*
%TO.C,J10*%
X172720000Y-53340000D03*
D18*
X172720000Y-55880000D03*
%TD*%
D12*
%TO.C,R5*%
X124817500Y-76200000D03*
X126642500Y-76200000D03*
%TD*%
D25*
%TO.C,U1*%
X149846600Y-46898800D03*
D26*
X144696600Y-43868800D03*
X150146600Y-43868800D03*
D25*
X144996600Y-46898800D03*
D27*
X137631600Y-43738800D03*
D18*
X138531600Y-43738800D03*
D27*
X137631600Y-46278800D03*
D18*
X138531600Y-46278800D03*
D17*
X138531600Y-48818800D03*
D27*
X137631600Y-48818800D03*
X137631600Y-51358800D03*
D18*
X138531600Y-51358800D03*
D27*
X137631600Y-53898800D03*
D18*
X138531600Y-53898800D03*
X138531600Y-56438800D03*
D27*
X137631600Y-56438800D03*
X137631600Y-58978800D03*
D18*
X138531600Y-58978800D03*
D17*
X138531600Y-61518800D03*
D27*
X137631600Y-61518800D03*
D18*
X138531600Y-64058800D03*
D27*
X137631600Y-64058800D03*
X137631600Y-66598800D03*
D18*
X138531600Y-66598800D03*
X138531600Y-69138800D03*
D27*
X137631600Y-69138800D03*
D18*
X138531600Y-71678800D03*
D27*
X137631600Y-71678800D03*
X137631600Y-74218800D03*
D17*
X138531600Y-74218800D03*
D27*
X137631600Y-76758800D03*
D18*
X138531600Y-76758800D03*
X138531600Y-79298800D03*
D27*
X137631600Y-79298800D03*
X137631600Y-81838800D03*
D18*
X138531600Y-81838800D03*
D27*
X137631600Y-84378800D03*
D18*
X138531600Y-84378800D03*
D27*
X137631600Y-86918800D03*
D17*
X138531600Y-86918800D03*
D18*
X138531600Y-89458800D03*
D27*
X137631600Y-89458800D03*
D18*
X138531600Y-91998800D03*
D27*
X137631600Y-91998800D03*
X157211600Y-91998800D03*
D18*
X156311600Y-91998800D03*
X156311600Y-89458800D03*
D27*
X157211600Y-89458800D03*
D17*
X156311600Y-86918800D03*
D27*
X157211600Y-86918800D03*
D18*
X156311600Y-84378800D03*
D27*
X157211600Y-84378800D03*
X157211600Y-81838800D03*
D18*
X156311600Y-81838800D03*
X156311600Y-79298800D03*
D27*
X157211600Y-79298800D03*
D18*
X156311600Y-76758800D03*
D27*
X157211600Y-76758800D03*
D17*
X156311600Y-74218800D03*
D27*
X157211600Y-74218800D03*
D18*
X156311600Y-71678800D03*
D27*
X157211600Y-71678800D03*
X157211600Y-69138800D03*
D18*
X156311600Y-69138800D03*
D27*
X157211600Y-66598800D03*
D18*
X156311600Y-66598800D03*
D27*
X157211600Y-64058800D03*
D18*
X156311600Y-64058800D03*
D17*
X156311600Y-61518800D03*
D27*
X157211600Y-61518800D03*
D18*
X156311600Y-58978800D03*
D27*
X157211600Y-58978800D03*
X157211600Y-56438800D03*
D18*
X156311600Y-56438800D03*
D27*
X157211600Y-53898800D03*
D18*
X156311600Y-53898800D03*
D27*
X157211600Y-51358800D03*
D18*
X156311600Y-51358800D03*
D17*
X156311600Y-48818800D03*
D27*
X157211600Y-48818800D03*
X157211600Y-46278800D03*
D18*
X156311600Y-46278800D03*
X156311600Y-43738800D03*
D27*
X157211600Y-43738800D03*
D18*
X148005700Y-73468800D03*
D17*
X150545700Y-73468800D03*
D18*
X153085700Y-73468800D03*
%TD*%
D17*
%TO.C,J12*%
X172720000Y-63500000D03*
D18*
X172720000Y-66040000D03*
X172720000Y-68580000D03*
%TD*%
D21*
%TO.C,R7*%
X126642500Y-82550000D03*
X124817500Y-82550000D03*
%TD*%
D20*
%TO.C,C1*%
X131037500Y-98425000D03*
X129312500Y-98425000D03*
%TD*%
D13*
%TO.C,J2*%
X122475000Y-94625000D03*
D14*
X120315000Y-89545000D03*
D15*
X120315000Y-92085000D03*
X120315000Y-94625000D03*
X120315000Y-97165000D03*
%TD*%
D20*
%TO.C,C4*%
X131037500Y-74295000D03*
X129312500Y-74295000D03*
%TD*%
D12*
%TO.C,R16*%
X164187500Y-67310000D03*
X166012500Y-67310000D03*
%TD*%
M02*
